<svg width="278" height="69" viewBox="0 0 278 69" fill="none" xmlns="http://www.w3.org/2000/svg">
<g filter="url(#filter0_d_300_173)">
<path d="M110.355 22.9882V32.3082H120.515V35.3082H110.355V44.9082H121.715V47.9082H106.715V19.9882H121.715V22.9882H110.355ZM135.783 48.2682C134.103 48.2682 132.596 47.9882 131.263 47.4282C129.93 46.8415 128.876 46.0415 128.103 45.0282C127.33 43.9882 126.903 42.8015 126.823 41.4682H130.583C130.69 42.5615 131.196 43.4549 132.103 44.1482C133.036 44.8415 134.25 45.1882 135.743 45.1882C137.13 45.1882 138.223 44.8815 139.023 44.2682C139.823 43.6549 140.223 42.8815 140.223 41.9482C140.223 40.9882 139.796 40.2815 138.943 39.8282C138.09 39.3482 136.77 38.8815 134.983 38.4282C133.356 38.0015 132.023 37.5749 130.983 37.1482C129.97 36.6949 129.09 36.0415 128.343 35.1882C127.623 34.3082 127.263 33.1615 127.263 31.7482C127.263 30.6282 127.596 29.6015 128.263 28.6682C128.93 27.7349 129.876 27.0015 131.103 26.4682C132.33 25.9082 133.73 25.6282 135.303 25.6282C137.73 25.6282 139.69 26.2415 141.183 27.4682C142.676 28.6949 143.476 30.3749 143.583 32.5082H139.943C139.863 31.3615 139.396 30.4415 138.543 29.7482C137.716 29.0549 136.596 28.7082 135.183 28.7082C133.876 28.7082 132.836 28.9882 132.063 29.5482C131.29 30.1082 130.903 30.8415 130.903 31.7482C130.903 32.4682 131.13 33.0682 131.583 33.5482C132.063 34.0015 132.65 34.3749 133.343 34.6682C134.063 34.9349 135.05 35.2415 136.303 35.5882C137.876 36.0149 139.156 36.4415 140.143 36.8682C141.13 37.2682 141.97 37.8815 142.663 38.7082C143.383 39.5349 143.756 40.6149 143.783 41.9482C143.783 43.1482 143.45 44.2282 142.783 45.1882C142.116 46.1482 141.17 46.9082 139.943 47.4682C138.743 48.0015 137.356 48.2682 135.783 48.2682ZM154.161 28.9882V41.9082C154.161 42.9749 154.388 43.7349 154.841 44.1882C155.295 44.6149 156.081 44.8282 157.201 44.8282H159.881V47.9082H156.601C154.575 47.9082 153.055 47.4415 152.041 46.5082C151.028 45.5749 150.521 44.0415 150.521 41.9082V28.9882H147.681V25.9882H150.521V20.4682H154.161V25.9882H159.881V28.9882H154.161ZM184.532 25.9882V47.9082H180.892V44.6682C180.198 45.7882 179.225 46.6682 177.972 47.3082C176.745 47.9215 175.385 48.2282 173.892 48.2282C172.185 48.2282 170.652 47.8815 169.292 47.1882C167.932 46.4682 166.852 45.4015 166.052 43.9882C165.278 42.5749 164.892 40.8549 164.892 38.8282V25.9882H168.492V38.3482C168.492 40.5082 169.038 42.1749 170.132 43.3482C171.225 44.4949 172.718 45.0682 174.612 45.0682C176.558 45.0682 178.092 44.4682 179.212 43.2682C180.332 42.0682 180.892 40.3215 180.892 38.0282V25.9882H184.532ZM190.118 36.8682C190.118 34.6282 190.571 32.6682 191.478 30.9882C192.384 29.2815 193.624 27.9615 195.198 27.0282C196.798 26.0949 198.584 25.6282 200.558 25.6282C202.264 25.6282 203.851 26.0282 205.318 26.8282C206.784 27.6015 207.904 28.6282 208.678 29.9082V18.3082H212.358V47.9082H208.678V43.7882C207.958 45.0949 206.891 46.1749 205.478 47.0282C204.064 47.8549 202.411 48.2682 200.518 48.2682C198.571 48.2682 196.798 47.7882 195.198 46.8282C193.624 45.8682 192.384 44.5215 191.478 42.7882C190.571 41.0549 190.118 39.0815 190.118 36.8682ZM208.678 36.9082C208.678 35.2549 208.344 33.8149 207.678 32.5882C207.011 31.3615 206.104 30.4282 204.958 29.7882C203.838 29.1215 202.598 28.7882 201.238 28.7882C199.878 28.7882 198.638 29.1082 197.518 29.7482C196.398 30.3882 195.504 31.3215 194.838 32.5482C194.171 33.7749 193.838 35.2149 193.838 36.8682C193.838 38.5482 194.171 40.0149 194.838 41.2682C195.504 42.4949 196.398 43.4415 197.518 44.1082C198.638 44.7482 199.878 45.0682 201.238 45.0682C202.598 45.0682 203.838 44.7482 204.958 44.1082C206.104 43.4415 207.011 42.4949 207.678 41.2682C208.344 40.0149 208.678 38.5615 208.678 36.9082ZM217.949 36.8682C217.949 34.6282 218.402 32.6682 219.309 30.9882C220.216 29.2815 221.456 27.9615 223.029 27.0282C224.629 26.0949 226.402 25.6282 228.349 25.6282C230.269 25.6282 231.936 26.0415 233.349 26.8682C234.762 27.6949 235.816 28.7349 236.509 29.9882V25.9882H240.189V47.9082H236.509V43.8282C235.789 45.1082 234.709 46.1749 233.269 47.0282C231.856 47.8549 230.202 48.2682 228.309 48.2682C226.362 48.2682 224.602 47.7882 223.029 46.8282C221.456 45.8682 220.216 44.5215 219.309 42.7882C218.402 41.0549 217.949 39.0815 217.949 36.8682ZM236.509 36.9082C236.509 35.2549 236.176 33.8149 235.509 32.5882C234.842 31.3615 233.936 30.4282 232.789 29.7882C231.669 29.1215 230.429 28.7882 229.069 28.7882C227.709 28.7882 226.469 29.1082 225.349 29.7482C224.229 30.3882 223.336 31.3215 222.669 32.5482C222.002 33.7749 221.669 35.2149 221.669 36.8682C221.669 38.5482 222.002 40.0149 222.669 41.2682C223.336 42.4949 224.229 43.4415 225.349 44.1082C226.469 44.7482 227.709 45.0682 229.069 45.0682C230.429 45.0682 231.669 44.7482 232.789 44.1082C233.936 43.4415 234.842 42.4949 235.509 41.2682C236.176 40.0149 236.509 38.5615 236.509 36.9082ZM267.94 34.8282H259.42V43.4682H256.02V34.8282H247.54V31.7482H256.02V23.0682H259.42V31.7482H267.94V34.8282Z" fill="#022212"/>
</g>
<path fill-rule="evenodd" clip-rule="evenodd" d="M8 46.5L6.5 47L5 48L3.5 49L2 51L0.5 53.5L0 56V59L0.5 60.5L1 62L2 64L4 66L5 67L7 68L8.5 68.5L10.5 69H67H67.5L68.5 68.5L69.5 67.5L70 66V64.5V64L69 63L67.5 62.5V52.5L68.5 52L69.5 51L70 49.5V48L69 46.5L68 46H61V45.5L61.5 45V44L61 43L60 42L59 41.5V39.5H62.5L62 37L60.5 28L61 27.5L61.5 26.5L62 26V24L61 23L60.5 22.5L60 22L59 21.5V16.5L56.5 15.5L65 12L43 3L35 0L13.5 8.5L5 12L7 13L17.5 17.5V30.5H12L10.5 31L9 31.5L8 32L7 33L6 34L5 35.5L4.5 37L4 39V40.5L4.5 41.5L5 43L6 44.5L7 45.5L7.5 46L8 46.5ZM35 22L10.5 12L35 2.5L59 12L53 14.5L52 14L35 7.5L34 10L50 16L35 22ZM35 24.5L19.5 18V31L20.5 32L22.5 33.5L25 34.5L28 35.5L31 36H38.5L42 35.5L44 35L47 33.5L48 33L49 32.5L50 31.5V18L35 24.5ZM53.5 17H52.5V30.5H55V30V28.5V28L54.5 27L54 26V25V24L54.5 23L55.5 22L56.5 21.5V18.5L53.5 17ZM58 26.5C57.1716 26.5 56.5 25.8284 56.5 25C56.5 24 57 23.5 58 23.5C59 23.5 59.5 24 59.5 25C59.5 26 58.7188 26.5 58 26.5ZM58.5 29H57L56 37H60L58.5 29ZM50.5 34L49 35H54L54.5 33H51.5L50.5 34ZM54 37H43.5L38.5 38.5H31L29 38L27 37.5L26 37H13L12.1562 37.5L11.5 38L11 39V40L11.5 41L12.1562 41.5H57V39.5H53L54 37ZM18 33L21 35H12.1562L11 35.5L10 36L9 38V40.5L9.5 42L11.5 43.5H26H58L58.5 44L59 44.5V45.5L58 46H41H12.1562L11 45.5L9.5 45L8 43.5L7 42L6.5 40.5V39L7 37.5L8 35.5L9.5 34L10.5 33.5L12 33H18ZM9 48.5L11 48H66.5L67.5 48.5V49V49.5L67 50H11L9 50.5L6.5 52L5 54L4 56V58.75L6 62.5L7.5 63.5L10 64.5H67L67.5 65V66L67 66.5H11H9L6.5 65.5L4.5 63.5L3 61.5L2 58.5V56.5L3 53.5L4.5 51.5L6.5 49.5L9 48.5ZM65.5 62.5H11L9.5 62L8 61L6.5 59V57L7 54.5L9 53L11 52.5H65.5V54.5H46V57H65.5V62.5Z" fill="#022212"/>
<path d="M11 58V60H41.5V58H11Z" fill="#022212"/>
<defs>
<filter id="filter0_d_300_173" x="102.715" y="18.3082" width="169.225" height="37.96" filterUnits="userSpaceOnUse" color-interpolation-filters="sRGB">
<feFlood flood-opacity="0" result="BackgroundImageFix"/>
<feColorMatrix in="SourceAlpha" type="matrix" values="0 0 0 0 0 0 0 0 0 0 0 0 0 0 0 0 0 0 127 0" result="hardAlpha"/>
<feOffset dy="4"/>
<feGaussianBlur stdDeviation="2"/>
<feComposite in2="hardAlpha" operator="out"/>
<feColorMatrix type="matrix" values="0 0 0 0 0 0 0 0 0 0 0 0 0 0 0 0 0 0 0.25 0"/>
<feBlend mode="normal" in2="BackgroundImageFix" result="effect1_dropShadow_300_173"/>
<feBlend mode="normal" in="SourceGraphic" in2="effect1_dropShadow_300_173" result="shape"/>
</filter>
</defs>
</svg>
